<mxfile host="65bd71144e">
    <diagram id="ybIHxXCL54Ibz4m5sB5Z" name="Page-1">
        <mxGraphModel dx="1341" dy="1068" grid="1" gridSize="10" guides="1" tooltips="1" connect="1" arrows="1" fold="1" page="1" pageScale="1" pageWidth="827" pageHeight="1169" math="0" shadow="0">
            <root>
                <mxCell id="0"/>
                <mxCell id="1" parent="0"/>
                <mxCell id="2" value="" style="group" vertex="1" connectable="0" parent="1">
                    <mxGeometry x="890" y="60" width="420" height="938" as="geometry"/>
                </mxCell>
                <mxCell id="3" value="" style="strokeWidth=1;shadow=0;dashed=0;align=center;html=1;shape=mxgraph.mockup.containers.browserWindow;rSize=0;strokeColor=#666666;mainText=,;recursiveResize=0;rounded=0;labelBackgroundColor=none;fontFamily=Verdana;fontSize=12;container=0;" vertex="1" parent="2">
                    <mxGeometry y="19" width="420" height="900" as="geometry"/>
                </mxCell>
                <mxCell id="4" value="&lt;font style=&quot;font-size: 24px&quot;&gt;Landing Page&lt;/font&gt;" style="strokeWidth=1;shadow=0;dashed=0;align=center;html=1;shape=mxgraph.mockup.containers.anchor;fontSize=17;fontColor=#666666;align=left;" vertex="1" parent="2">
                    <mxGeometry width="110" height="26" as="geometry"/>
                </mxCell>
                <mxCell id="5" value="" style="rounded=0;whiteSpace=wrap;html=1;fontSize=24;" vertex="1" parent="2">
                    <mxGeometry y="139" width="420" height="50" as="geometry"/>
                </mxCell>
                <mxCell id="6" value="App Name" style="text;html=1;strokeColor=none;fillColor=none;align=center;verticalAlign=middle;whiteSpace=wrap;rounded=0;fontSize=24;" vertex="1" parent="2">
                    <mxGeometry x="127.5" y="149" width="165" height="30" as="geometry"/>
                </mxCell>
                <mxCell id="7" value="" style="rounded=1;whiteSpace=wrap;html=1;fontSize=24;" vertex="1" parent="2">
                    <mxGeometry x="20" y="230" width="380" height="220" as="geometry"/>
                </mxCell>
                <mxCell id="8" value="Please enter your name" style="text;html=1;strokeColor=none;fillColor=none;align=center;verticalAlign=middle;whiteSpace=wrap;rounded=0;fontSize=24;" vertex="1" parent="2">
                    <mxGeometry x="50" y="260" width="320" height="50" as="geometry"/>
                </mxCell>
                <mxCell id="9" value="Text Input" style="rounded=0;whiteSpace=wrap;html=1;fontSize=24;" vertex="1" parent="2">
                    <mxGeometry x="80" y="330" width="250" height="40" as="geometry"/>
                </mxCell>
                <mxCell id="10" value="Go!" style="rounded=1;whiteSpace=wrap;html=1;fontSize=24;" vertex="1" parent="2">
                    <mxGeometry x="120" y="390" width="160" height="40" as="geometry"/>
                </mxCell>
            </root>
        </mxGraphModel>
    </diagram>
</mxfile>